<svg width="28" height="28" viewBox="0 0 28 28" fill="none" xmlns="http://www.w3.org/2000/svg">
<mask id="mask0_1610_14719" style="mask-type:alpha" maskUnits="userSpaceOnUse" x="4" y="4" width="20" height="20">
<path d="M22.3123 23.1001L15.4289 16.2168C14.8456 16.7029 14.1748 17.0821 13.4164 17.3543C12.6581 17.6265 11.8998 17.7626 11.1414 17.7626C9.25533 17.7626 7.66594 17.1159 6.37327 15.8225C5.07983 14.5298 4.43311 12.9501 4.43311 11.0835C4.43311 9.2168 5.07983 7.63674 6.37327 6.3433C7.66594 5.05063 9.24561 4.4043 11.1123 4.4043C12.9789 4.4043 14.5637 5.05063 15.8664 6.3433C17.1692 7.63674 17.8206 9.2168 17.8206 11.0835C17.8206 11.9001 17.6748 12.6876 17.3831 13.446C17.0914 14.2043 16.7123 14.846 16.2456 15.371L23.1873 22.3126C23.2845 22.4099 23.3331 22.5316 23.3331 22.6778C23.3331 22.8232 23.2651 22.964 23.1289 23.1001C23.0123 23.2168 22.8812 23.2751 22.7358 23.2751C22.5896 23.2751 22.4484 23.2168 22.3123 23.1001ZM11.1414 16.596C12.6776 16.596 13.9803 16.0663 15.0498 15.007C16.1192 13.9469 16.6539 12.639 16.6539 11.0835C16.6539 9.52791 16.1192 8.22007 15.0498 7.15996C13.9803 6.10063 12.6776 5.57096 11.1414 5.57096C9.58588 5.57096 8.27338 6.10063 7.20394 7.15996C6.13449 8.22007 5.59977 9.52791 5.59977 11.0835C5.59977 12.639 6.13449 13.9469 7.20394 15.007C8.27338 16.0663 9.58588 16.596 11.1414 16.596Z" fill="#1C1B1F"/>
</mask>
<g mask="url(#mask0_1610_14719)">
<rect width="28" height="28" fill="black"/>
</g>
</svg>
